<?xml version="1.0" encoding="utf-8"?>
<!-- Generator: Adobe Illustrator 21.1.0, SVG Export Plug-In . SVG Version: 6.00 Build 0)  -->
<svg version="1.1" id="Layer_1" xmlns="http://www.w3.org/2000/svg" xmlns:xlink="http://www.w3.org/1999/xlink" x="0px" y="0px"
	 viewBox="0 0 160 25" style="enable-background:new 0 0 160 25;" xml:space="preserve">
<style type="text/css">
	.st0{fill:#D8961E;}
	.st1{fill:#808F99;}
</style>
<g>
	<path class="st0" d="M4.2,16.4L9,3.4c-4.2,1-7.3,4.8-7.3,9.3c0,5.3,4.3,9.6,9.6,9.6c3.8,0,7-2.2,8.6-5.3
		C14.7,19.1,7.7,19.1,4.2,16.4"/>
	<path class="st0" d="M15.9,14.1c1.9,0,3.7-0.4,5-1c0-0.2,0-0.3,0-0.5c0-2.3-0.8-4.5-2.2-6.1L15.9,14.1z"/>
	<path class="st0" d="M15.5,4.1l-4.1,11.3c2.3,0.6,6.2,0.4,9.3-0.8c0-0.2,0.1-0.4,0.1-0.6c-2.5,0.8-5.5,1.3-7.9,0.8l3.7-10
		C16.3,4.4,15.9,4.3,15.5,4.1"/>
	<path class="st0" d="M8.5,15.6l4.5-12.4c-0.4-0.1-0.8-0.1-1.2-0.2L7,16.2c2.9,1.8,8.7,1.5,13.2-0.1c0.1-0.3,0.2-0.5,0.3-0.8
		C17.5,16.6,11.1,17.3,8.5,15.6"/>
	<path class="st1" d="M30.6,3.1h-2v7.7h10.8V3.1h-2v5.7h-2.4V3.1h-2.1v5.7h-2.3V3.1z M43.1,3.1c-0.4,0-0.7,0.1-1.1,0.2
		c-0.3,0.1-0.6,0.3-0.8,0.5c-0.2,0.2-0.5,0.5-0.6,0.8c-0.2,0.3-0.2,0.6-0.2,1v2.8c0,0.4,0.1,0.7,0.2,1c0.2,0.3,0.3,0.5,0.6,0.8
		c0.2,0.2,0.5,0.4,0.8,0.5c0.3,0.1,0.7,0.2,1,0.2h8v-2h-8.8V8h8.8V6h-8.8V5.1h8.8v-2L43.1,3.1L43.1,3.1z M60.6,3.1h-8.5v7.7h2.1V7.9
		h6.7c0.3,0,0.6-0.1,1-0.2c0.3-0.1,0.6-0.3,0.8-0.5C62.8,7,63,6.7,63.1,6.5c0.1-0.3,0.2-0.6,0.2-0.9c0-0.4-0.1-0.7-0.2-1
		C63,4.3,62.8,4,62.5,3.8c-0.2-0.2-0.5-0.4-0.9-0.5C61.3,3.2,61,3.1,60.6,3.1 M54.2,5.1h7.1v1h-7.1V5.1z M67.1,3.1
		c-0.4,0-0.7,0.1-1.1,0.2c-0.3,0.1-0.6,0.3-0.8,0.5s-0.5,0.5-0.6,0.8c-0.2,0.3-0.2,0.6-0.2,1v2.8c0,0.4,0.1,0.7,0.2,1
		c0.2,0.3,0.3,0.5,0.6,0.8c0.2,0.2,0.5,0.4,0.8,0.5c0.3,0.1,0.7,0.2,1,0.2h8v-2h-8.8V8h8.8V6h-8.8V5.1h8.8v-2L67.1,3.1L67.1,3.1z
		 M78,10.8V5.2l1.8,3.9c0.1,0.2,0.2,0.5,0.4,0.7c0.1,0.2,0.3,0.4,0.5,0.6c0.2,0.2,0.4,0.3,0.5,0.4c0.2,0.1,0.4,0.2,0.7,0.2
		c0.3,0,0.5,0,0.7-0.1c0.2-0.1,0.4-0.2,0.5-0.3c0.2-0.2,0.3-0.3,0.4-0.5c0.1-0.2,0.2-0.5,0.4-0.8l1.8-4v5.6h1.8V5.3
		c0-0.3,0-0.5-0.2-0.8c-0.1-0.2-0.2-0.5-0.4-0.7c-0.2-0.2-0.4-0.4-0.6-0.5s-0.5-0.2-0.8-0.2c-0.5,0-0.8,0.1-1.2,0.4
		c-0.3,0.2-0.6,0.6-0.7,1L81.7,9L80,4.8c-0.1-0.2-0.2-0.5-0.3-0.6c-0.1-0.2-0.3-0.4-0.5-0.5c-0.2-0.2-0.4-0.3-0.6-0.4
		c-0.2-0.1-0.5-0.1-0.7-0.1c-0.3,0-0.5,0.1-0.7,0.2c-0.2,0.1-0.4,0.2-0.6,0.4c-0.2,0.2-0.3,0.4-0.4,0.6S76.1,4.8,76.1,5v5.7L78,10.8
		L78,10.8z M91.2,3.1c-0.4,0-0.7,0.1-1.1,0.2c-0.3,0.1-0.6,0.3-0.8,0.5c-0.2,0.2-0.5,0.5-0.6,0.8c-0.2,0.3-0.2,0.6-0.2,1v2.8
		c0,0.4,0.1,0.7,0.2,1c0.2,0.3,0.3,0.5,0.6,0.8c0.2,0.2,0.5,0.4,0.8,0.5c0.3,0.1,0.7,0.2,1,0.2h8v-2h-8.8V8h8.8V6h-8.8V5.1h8.8v-2
		L91.2,3.1L91.2,3.1z M100.3,3.1v1.9h4.4v5.7h2V5.1h4.4V3.1H100.3z M120.7,10.8c0.3,0,0.7-0.1,1-0.2c0.3-0.1,0.6-0.3,0.9-0.5
		c0.2-0.2,0.5-0.5,0.6-0.8c0.2-0.3,0.2-0.6,0.2-1c0-0.3-0.1-0.7-0.2-0.9c-0.1-0.3-0.3-0.5-0.5-0.8c-0.2-0.2-0.5-0.4-0.8-0.5
		c-0.3-0.1-0.6-0.2-1-0.2h-6.7V3.2h-2v7.7L120.7,10.8L120.7,10.8z M114.2,7.9h7.1v1h-7.1V7.9z M127.1,3.1c-0.4,0-0.7,0.1-1.1,0.2
		c-0.3,0.1-0.6,0.3-0.8,0.5s-0.4,0.5-0.6,0.8c-0.2,0.3-0.2,0.6-0.2,1v2.8c0,0.4,0.1,0.7,0.2,1c0.2,0.3,0.3,0.5,0.6,0.8
		c0.2,0.2,0.5,0.4,0.8,0.5c0.3,0.1,0.7,0.2,1,0.2h8v-2h-8.8V8h8.8V6h-8.8V5.1h8.8v-2L127.1,3.1L127.1,3.1z M144.3,3.1h-8.2v7.7h8.5
		c0.3,0,0.7-0.1,1-0.2c0.3-0.1,0.6-0.3,0.8-0.5c0.2-0.2,0.4-0.5,0.6-0.8c0.2-0.3,0.2-0.6,0.2-1c0-0.2-0.1-0.5-0.2-0.7
		c-0.1-0.2-0.3-0.5-0.4-0.7c0.3-0.5,0.4-0.9,0.4-1.4c0-0.4-0.1-0.8-0.2-1.1s-0.3-0.5-0.6-0.7c-0.2-0.2-0.5-0.3-0.9-0.4
		C145.1,3.2,144.7,3.1,144.3,3.1 M145.1,8.8h-6.8V7.9h6.8V8.8z M145.1,5.9h-6.8V5.1h6.8V5.9z M151,3.1c-0.3,0-0.7,0.1-1,0.2
		c-0.3,0.1-0.6,0.3-0.9,0.5c-0.2,0.2-0.5,0.4-0.6,0.7c-0.2,0.3-0.2,0.6-0.2,0.9v2.9c0,0.4,0.1,0.7,0.2,1c0.1,0.3,0.3,0.5,0.5,0.8
		c0.2,0.2,0.5,0.4,0.8,0.5c0.3,0.1,0.6,0.2,1,0.2h5.9c0.3,0,0.6-0.1,0.9-0.2c0.3-0.1,0.5-0.3,0.8-0.5c0.2-0.2,0.4-0.5,0.5-0.7
		c0.1-0.3,0.2-0.6,0.2-0.9V5.6c0-0.3-0.1-0.6-0.2-0.9c-0.1-0.3-0.3-0.5-0.5-0.8c-0.2-0.2-0.5-0.4-0.8-0.5c-0.3-0.1-0.6-0.2-0.9-0.2
		L151,3.1L151,3.1z M157,8.8h-6.8V5.1h6.8V8.8z"/>
	<path class="st0" d="M31.6,18.5h-2v3.1h2c1,0,1.6-0.6,1.6-1.5C33.3,19.1,32.6,18.5,31.6,18.5 M31.7,22.4h-2.9v-7.7h4.8v0.7h-4v2.5
		h2.1c1.5,0,2.4,0.9,2.4,2.3C34.1,21.5,33.1,22.4,31.7,22.4"/>
	<polygon class="st0" points="35.6,22.4 35.6,14.6 40.4,14.6 40.4,15.4 36.4,15.4 36.4,18.1 39.8,18.1 39.8,18.8 36.4,18.8 
		36.4,21.6 40.4,21.6 40.4,22.4 	"/>
	<path class="st0" d="M41.4,20.2h0.8c0.2,1,0.9,1.6,1.8,1.6s1.7-0.6,1.7-1.5c0-1-0.6-1.5-1.6-1.5h-1v-0.7h1c0.9,0,1.4-0.5,1.4-1.4
		c0-0.9-0.6-1.4-1.6-1.4c-1,0-1.6,0.6-1.8,1.6h-0.8c0.2-1.5,1.3-2.3,2.7-2.3c1.4,0,2.4,0.8,2.4,2.1c0,0.8-0.4,1.4-1.1,1.8
		c0.8,0.3,1.2,0.9,1.2,1.8c0,1.4-1.1,2.2-2.6,2.2C42.7,22.4,41.6,21.6,41.4,20.2"/>
	<path class="st0" d="M52.1,15.9c-0.4-0.4-0.8-0.5-1.3-0.5c-0.5,0-1,0.2-1.3,0.5c-0.5,0.5-0.5,1.1-0.5,2.7c0,1.6,0.1,2.1,0.5,2.7
		c0.4,0.4,0.8,0.5,1.3,0.5c0.5,0,1-0.2,1.3-0.5c0.5-0.5,0.5-1.1,0.5-2.7C52.6,16.9,52.6,16.4,52.1,15.9 M52.7,21.7
		c-0.5,0.5-1.1,0.8-1.9,0.8s-1.5-0.3-1.9-0.8C48.1,21,48,20.3,48,18.5s0-2.5,0.8-3.2c0.5-0.5,1.1-0.8,1.9-0.8s1.5,0.3,1.9,0.8
		c0.7,0.7,0.8,1.4,0.8,3.2C53.4,20.3,53.4,20.9,52.7,21.7"/>
	<polygon class="st0" points="59.7,22.4 59.7,15.4 56,15.4 56,22.4 55.2,22.4 55.2,14.6 60.5,14.6 60.5,22.4 	"/>
	<path class="st0" d="M65,15.8l-1.5,4.1h2.9L65,15.8z M67.2,22.4l-0.6-1.8h-3.4l-0.6,1.8h-0.9l2.8-7.7h0.7l2.8,7.7H67.2z"/>
	<path class="st0" d="M71.6,22.4c-0.8,0-1.5-0.3-1.9-0.8c-0.7-0.7-0.8-1.4-0.8-3.2s0-2.5,0.8-3.2c0.5-0.5,1.1-0.8,1.9-0.8
		c1.4,0,2.4,0.8,2.7,2.3h-0.8c-0.2-1-0.9-1.6-1.8-1.6c-0.5,0-1,0.2-1.3,0.5c-0.5,0.5-0.5,1.1-0.5,2.7c0,1.6,0.1,2.1,0.5,2.7
		c0.4,0.4,0.8,0.5,1.3,0.5c1,0,1.7-0.6,1.8-1.6h0.8C74,21.6,73,22.4,71.6,22.4"/>
	<polygon class="st0" points="80.3,22.4 80.3,18.8 76.6,18.8 76.6,22.4 75.8,22.4 75.8,14.6 76.6,14.6 76.6,18.1 80.3,18.1 
		80.3,14.6 81.1,14.6 81.1,22.4 	"/>
	<path class="st0" d="M86.9,15.9c-0.4-0.4-0.8-0.5-1.3-0.5c-0.5,0-1,0.2-1.3,0.5c-0.5,0.5-0.5,1.1-0.5,2.7c0,1.6,0.1,2.1,0.5,2.7
		c0.4,0.4,0.8,0.5,1.3,0.5c0.5,0,1-0.2,1.3-0.5c0.5-0.5,0.5-1.1,0.5-2.7S87.4,16.4,86.9,15.9 M87.5,21.7c-0.5,0.5-1.1,0.8-1.9,0.8
		c-0.8,0-1.5-0.3-1.9-0.8c-0.7-0.7-0.8-1.4-0.8-3.2s0-2.5,0.8-3.2c0.5-0.5,1.1-0.8,1.9-0.8c0.8,0,1.5,0.3,1.9,0.8
		c0.7,0.7,0.8,1.4,0.8,3.2C88.3,20.3,88.2,20.9,87.5,21.7"/>
	<path class="st0" d="M92.5,22.4c-0.8,0-1.5-0.3-1.9-0.8c-0.7-0.7-0.8-1.4-0.8-3.2s0-2.5,0.8-3.2c0.5-0.5,1.1-0.8,1.9-0.8
		c1.4,0,2.4,0.8,2.7,2.3h-0.8c-0.2-1-0.9-1.6-1.8-1.6c-0.5,0-1,0.2-1.3,0.5c-0.5,0.5-0.5,1.1-0.5,2.7c0,1.6,0.1,2.1,0.5,2.7
		c0.4,0.4,0.8,0.5,1.3,0.5c1,0,1.7-0.6,1.8-1.6h0.8C94.9,21.6,93.8,22.4,92.5,22.4"/>
	<polygon class="st0" points="99.1,15.4 99.1,22.4 98.2,22.4 98.2,15.4 96,15.4 96,14.6 101.3,14.6 101.3,15.4 	"/>
	<path class="st0" d="M105.5,18.5h-2v3.1h2c1,0,1.6-0.6,1.6-1.5C107.1,19.1,106.5,18.5,105.5,18.5 M105.6,22.4h-2.9v-7.7h0.8v3.2
		h2.1c1.5,0,2.4,0.9,2.4,2.3C107.9,21.5,107,22.4,105.6,22.4"/>
</g>
</svg>
